<svg width="20" height="22" viewBox="0 0 20 22" fill="none" xmlns="http://www.w3.org/2000/svg">
<path d="M10 0C5.36838 0 0.736816 0.578966 0.736816 4.63157V15.6316C0.736816 17.8663 2.55469 19.6842 4.78947 19.6842L3.05263 21.4211V22.0001H5.63471L7.95052 19.6842H12.3158L14.6316 22H16.9474V21.421L15.2105 19.6842C17.4452 19.6842 19.2632 17.8663 19.2632 15.6315V4.63157C19.2631 0.578966 15.1179 0 10 0ZM4.78947 17.3684C3.8284 17.3684 3.05263 16.5927 3.05263 15.6316C3.05263 14.6705 3.8284 13.8947 4.78947 13.8947C5.75054 13.8947 6.52631 14.6705 6.52631 15.6316C6.52631 16.5927 5.75049 17.3684 4.78947 17.3684ZM8.84207 9.26318H3.05263V4.63157H8.84212V9.26318H8.84207ZM15.2105 17.3684C14.2495 17.3684 13.4737 16.5927 13.4737 15.6316C13.4737 14.6705 14.2495 13.8947 15.2105 13.8947C16.1716 13.8947 16.9474 14.6705 16.9474 15.6316C16.9474 16.5927 16.1715 17.3684 15.2105 17.3684ZM16.9474 9.26318H11.1579V4.63157H16.9474V9.26318Z" fill="#AB292A"/>
</svg>
