<svg width="375" height="347" viewBox="0 0 375 347" fill="none" xmlns="http://www.w3.org/2000/svg">
<path d="M-54.0592 41.0237C-54.0592 56.1203 -53.355 59.28 -52.2988 64.5463C-51.2425 69.8126 -49.8342 71.9191 -45.6093 73.6745C-41.3843 75.4299 -43.8489 96.8461 -43.8489 102.815C-43.8489 108.783 -43.8489 107.73 -45.6093 117.911C-47.3697 128.093 -50.5384 122.475 -62.8611 141.785C-75.1839 161.095 -67.4382 167.765 -66.734 172.329C-66.0299 176.893 -64.9734 179.351 -72.0149 191.288C-79.0565 203.225 -72.7191 210.598 -72.0149 216.566C-71.3108 222.534 -80.4648 232.716 -75.5357 241.844C-71.5925 249.147 -73.8927 276.25 -75.5357 288.889C-64.2692 299.562 -63.7998 313.933 -64.9734 319.785L-30.1178 335.935C-31.2914 337.573 -33.9907 341.201 -35.399 342.605C-37.1594 344.361 -32.9344 349.276 -30.1178 342.605C-27.3012 335.935 -24.1324 335.935 -22.02 335.935C-19.9075 335.935 -22.372 331.371 -24.1324 329.264C-25.5408 327.579 -18.8512 329.966 -15.3305 331.371L-13.218 326.807L-11.1055 335.935C-9.81456 335.701 -5.89475 334.882 -0.543148 333.477C4.80845 332.073 8.0241 332.892 8.96298 333.477C10.4887 332.658 13.8217 329.826 14.9483 325.051C16.3566 319.083 19.1733 323.998 23.3982 323.296C26.7782 322.734 22.9288 319.551 20.5816 318.029C21.5205 316.391 23.8911 312.482 25.8628 309.955C27.8344 307.427 19.408 303.05 14.9483 301.177H31.496C33.4913 301.528 36.848 302.863 34.313 305.39C31.778 307.918 33.2568 311.593 34.313 313.114C35.6039 313.582 40.2279 312.904 48.3961 306.444C58.6064 298.369 51.5649 290.996 54.3815 296.613C56.6348 301.107 65.1786 300.358 69.1688 299.422C73.159 294.975 80.5761 288.749 78.3228 299.422C75.5062 312.763 82.8998 309.252 93.8143 309.955C104.729 310.657 99.7997 293.805 99.4476 292.4C99.0955 290.996 92.406 271.686 97.3351 261.505C101.278 253.36 102.029 269.346 101.912 278.357C111.418 274.846 112.827 278.357 107.546 280.814C102.264 283.272 107.194 288.889 109.306 296.613C111.419 304.337 126.558 305.039 126.558 299.422C126.558 293.805 140.289 287.134 140.993 286.081C141.697 285.027 141.697 283.623 142.049 280.814C142.401 278.006 143.106 278.357 146.626 275.548C150.147 272.74 153.668 274.495 154.02 281.868C154.372 289.24 161.766 291.698 162.822 290.996C163.878 290.294 163.878 288.538 168.455 286.081C173.032 283.623 173.032 276.953 173.032 271.686C173.032 266.42 173.032 259.398 173.032 257.643C173.032 255.887 173.737 255.536 175.849 257.643C177.962 259.749 180.074 253.43 181.13 252.026C182.187 250.621 179.722 241.142 182.187 244.653C184.651 248.164 183.595 256.239 182.891 262.558C182.187 268.878 191.693 274.144 194.157 278.357C196.622 282.57 201.551 289.24 202.96 286.081C204.368 282.921 201.551 276.953 200.495 275.548C199.65 274.425 200.143 270.399 200.495 268.527H202.96L207.537 271.686C208.241 272.037 210.424 272.74 213.522 272.74C217.395 272.74 215.987 273.442 215.987 272.74C215.987 272.037 217.395 269.229 218.099 268.527C218.803 267.824 219.859 263.611 219.507 262.558C219.155 261.505 217.043 261.154 214.578 258.345C212.607 256.098 214.226 255.536 215.282 255.536C216.456 254.951 218.662 253.009 218.099 249.919C217.395 246.057 213.874 245.004 212.466 241.844C211.057 238.684 211.762 237.28 211.41 236.227C211.058 235.173 215.283 238.333 215.987 240.089C216.691 241.844 221.62 249.919 223.38 252.026C225.141 254.132 227.957 261.154 229.718 263.611C231.478 266.069 233.591 264.313 235.703 263.611C237.816 262.909 237.463 260.803 238.168 257.643C238.872 254.483 239.576 252.377 240.984 249.919C242.392 247.461 240.632 241.844 239.576 240.089C238.52 238.333 239.576 236.227 239.576 233.067C239.576 229.907 243.801 228.152 243.801 225.343C243.801 222.534 239.576 223.237 238.168 221.832C236.759 220.428 240.28 217.97 239.576 213.757C238.872 209.544 241.336 210.598 242.041 209.895C242.745 209.193 243.449 206.033 243.801 204.629C244.153 203.225 247.674 200.065 249.434 197.958C251.195 195.852 249.786 192.692 249.434 189.884C249.082 187.075 243.097 179.351 242.041 176.191C240.984 173.032 235.703 156.53 234.295 152.317C232.887 148.104 233.591 142.838 234.295 144.594C234.999 146.349 239.224 157.584 239.576 158.637C239.928 159.69 241.337 176.542 251.899 175.138C262.461 173.734 261.757 186.724 263.87 188.479C265.982 190.235 274.08 201.82 273.376 206.033C272.671 210.246 278.657 211.651 281.122 210.949C283.586 210.246 281.122 204.629 289.571 206.033C296.331 207.157 292.388 210.246 289.571 211.651C286.403 213.991 279.784 219.445 278.657 222.534C277.249 226.396 282.882 224.29 288.163 223.939C293.444 223.588 291.332 230.609 290.275 231.663C289.43 232.505 285.699 235.056 283.938 236.227C283.469 235.173 282.248 232.575 281.122 230.609C279.713 228.152 278.657 232.716 278.657 235.524C278.657 238.333 273.376 238.333 270.911 241.844C268.446 245.355 272.319 249.919 273.376 247.11C274.221 244.863 282.647 242.663 286.755 241.844C287.928 243.599 290.487 246.689 291.332 245.004C292.388 242.897 288.867 241.844 290.275 240.089C291.684 238.333 292.388 237.28 293.444 234.471C294.5 231.663 299.782 226.747 299.782 228.152C299.782 229.556 302.246 231.663 304.359 230.609C306.471 229.556 307.879 230.96 308.584 231.663C309.288 232.365 308.583 233.769 306.823 235.524C305.063 237.28 305.415 237.28 306.119 240.089C306.823 242.897 310.696 241.844 312.456 241.844C314.217 241.844 315.273 247.11 316.329 247.11C317.386 247.11 316.329 244.302 316.329 243.248C316.329 242.195 317.738 240.791 318.442 243.248C319.005 245.214 319.381 245.94 319.498 246.057C319.615 245.589 319.78 244.372 319.498 243.248C319.146 241.844 320.554 239.737 319.498 238.333C318.442 236.929 313.865 235.524 312.456 235.524C311.048 235.524 311.752 233.769 313.161 231.663C314.569 229.556 317.738 234.471 318.442 235.524C319.146 236.578 319.85 234.822 321.258 234.471C322.667 234.12 322.315 237.631 322.667 238.333C323.019 239.035 324.779 239.035 326.187 239.035C327.596 239.035 325.483 237.631 325.131 237.28C324.779 236.929 325.131 235.876 325.483 235.524C325.835 235.173 326.187 233.418 325.131 231.663C324.075 229.907 322.667 227.45 321.962 225.343C321.258 223.237 322.315 223.237 322.667 221.832C323.019 220.428 325.835 224.29 326.187 222.534C326.539 220.779 329.708 224.29 329.708 225.343C329.708 226.396 331.469 227.801 332.525 228.152C333.581 228.503 334.637 226.396 335.341 226.045C336.046 225.694 336.046 223.237 334.637 223.237C333.229 223.237 334.637 221.481 334.637 220.077C334.637 218.672 338.158 219.726 337.806 218.672C337.524 217.83 335.576 217.151 334.637 216.917C334.403 216.332 333.792 214.881 333.229 213.757C332.525 212.353 331.821 216.917 330.764 218.321C329.919 219.445 329.708 217.853 329.708 216.917C330.06 216.332 330.764 214.319 330.764 210.949C330.764 206.736 325.131 213.055 324.075 215.162C323.019 217.268 317.033 220.077 311.752 218.321C306.471 216.566 312.808 215.162 315.273 213.055C317.737 210.949 326.187 210.949 325.131 206.033C324.075 201.118 320.554 206.384 315.273 206.033C309.992 205.682 317.385 202.523 320.554 200.065C323.723 197.607 332.877 196.203 338.158 194.799C342.383 193.675 346.96 199.48 348.721 202.523C348.134 206.15 347.735 213.757 350.833 215.162C353.931 216.566 355.879 212.938 356.466 210.949C359.4 210.246 364.564 207.999 361.747 204.629C358.931 201.259 353.298 200.884 350.833 201.118C349.19 200.767 347.594 199.293 354.354 196.203C361.114 193.113 360.926 189.766 359.987 188.479C356.584 188.83 349.777 188.971 349.777 186.724C349.777 183.915 356.466 182.511 359.987 179.351C363.508 176.191 374.07 168.818 374.07 170.925C374.07 173.031 380.056 174.085 381.112 171.979C382.168 169.873 383.576 167.765 383.576 166.01C383.576 164.605 385.689 167.297 386.745 168.818C387.214 169.872 387.238 172.611 383.576 175.138C379.915 177.665 378.999 178.298 378.999 178.298C379.821 178.649 380.689 180.825 377.591 186.724C373.718 194.096 377.943 197.958 378.999 197.958C380.055 197.958 385.689 196.203 392.026 196.203C398.363 196.203 393.434 199.714 395.899 202.523C398.364 205.331 397.659 200.065 396.955 197.958C396.251 195.852 400.476 195.501 402.588 188.479C404.278 182.862 410.803 182.16 413.855 182.511L411.39 176.893H414.911V171.979C421.953 164.114 437.796 164.021 444.838 164.957C448.006 168.234 454.273 172.259 453.991 162.148C453.639 149.509 453.289 134.412 444.838 120.72C436.387 107.028 433.922 91.2288 435.331 78.2386C436.457 67.8465 438.382 41.1407 439.204 29.0868C438.851 24.4056 437.021 12.2347 432.514 1" stroke="#242323" stroke-opacity="0.2"/>
</svg>
