<svg width="853" height="555" viewBox="0 0 853 555" fill="none" xmlns="http://www.w3.org/2000/svg">
<path d="M37.7658 64.7568C37.7658 88.9748 38.8943 94.0437 40.5871 102.492C42.2799 110.94 44.5369 114.319 51.3079 117.135C58.079 119.951 54.1292 154.307 54.1292 163.882C54.1292 173.456 54.1292 171.767 51.3079 188.1C48.4867 204.433 43.4084 195.422 23.6595 226.398C3.91054 257.375 16.3241 268.076 17.4527 275.397C18.5812 282.719 20.2743 286.662 8.98923 305.811C-2.29587 324.96 7.86072 336.787 8.98923 346.362C10.1177 355.937 -4.55288 372.27 3.34668 386.913C9.66633 398.628 5.97987 442.108 3.34668 462.383C21.4028 479.505 22.1552 502.559 20.2743 511.946L76.1351 537.854C74.2543 540.482 69.9283 546.302 67.6713 548.555C64.85 551.371 71.6211 559.256 76.1351 548.555C80.6492 537.854 85.7275 537.854 89.113 537.854C92.4985 537.854 88.5488 530.532 85.7275 527.153C83.4705 524.449 94.1913 528.279 99.8339 530.532L103.219 523.21L106.605 537.854C108.674 537.478 114.956 536.164 123.533 533.911C132.109 531.658 137.263 532.972 138.767 533.911C141.213 532.597 146.554 528.054 148.36 520.394C150.617 510.819 155.131 518.704 161.902 517.578C167.319 516.677 161.15 511.57 157.388 509.13C158.892 506.502 162.692 500.231 165.852 496.176C169.011 492.121 155.507 485.1 148.36 482.096H174.88C178.077 482.659 183.457 484.799 179.394 488.854C175.332 492.909 177.701 498.804 179.394 501.245C181.463 501.996 188.874 500.907 201.964 490.544C218.328 477.59 207.043 465.763 211.557 474.774C215.168 481.983 228.861 480.782 235.255 479.28C241.65 472.146 253.537 462.158 249.926 479.28C245.412 500.682 257.261 495.05 274.753 496.176C292.245 497.302 284.346 470.268 283.781 468.016C283.217 465.763 272.496 434.786 280.396 418.453C286.715 405.386 287.919 431.031 287.731 445.487C302.966 439.855 305.223 445.487 296.76 449.43C288.296 453.372 296.195 462.383 299.581 474.774C302.966 487.165 327.229 488.291 327.229 479.28C327.229 470.268 349.235 459.567 350.364 457.878C351.492 456.188 351.492 453.935 352.057 449.43C352.621 444.924 353.749 445.487 359.392 440.981C365.034 436.476 370.677 439.292 371.241 451.119C371.806 462.947 383.655 466.889 385.348 465.763C387.04 464.636 387.04 461.82 394.376 457.878C401.711 453.935 401.711 443.234 401.711 434.786C401.711 426.338 401.711 415.074 401.711 412.258C401.711 409.442 402.84 408.878 406.225 412.258C409.611 415.637 412.996 405.499 414.689 403.246C416.382 400.993 412.432 385.787 416.382 391.419C420.332 397.051 418.639 410.005 417.51 420.143C416.382 430.28 431.617 438.729 435.567 445.487C439.516 452.246 447.416 462.947 449.673 457.878C451.931 452.809 447.416 443.234 445.724 440.981C444.369 439.179 445.159 432.721 445.724 429.717H449.673L457.009 434.786C458.137 435.349 461.636 436.476 466.601 436.476C472.808 436.476 470.551 437.602 470.551 436.476C470.551 435.349 472.808 430.844 473.936 429.717C475.065 428.591 476.758 421.832 476.193 420.143C475.629 418.453 472.244 417.89 468.294 413.384C465.134 409.78 467.73 408.878 469.422 408.878C471.303 407.94 474.839 404.823 473.936 399.867C472.808 393.672 467.165 391.982 464.908 386.913C462.651 381.844 463.78 379.591 463.216 377.902C462.652 376.212 469.423 381.281 470.551 384.097C471.68 386.913 479.579 399.867 482.4 403.246C485.222 406.626 489.736 417.89 492.557 421.832C495.378 425.775 498.764 422.959 502.149 421.832C505.535 420.706 504.971 417.327 506.099 412.258C507.228 407.189 508.357 403.809 510.613 399.867C512.87 395.925 510.049 386.913 508.357 384.097C506.664 381.281 508.357 377.902 508.357 372.833C508.357 367.764 515.127 364.948 515.127 360.442C515.127 355.936 508.357 357.063 506.099 354.81C503.842 352.557 509.485 348.615 508.357 341.856C507.229 335.098 511.177 336.787 512.306 335.661C513.434 334.535 514.563 329.466 515.127 327.213C515.692 324.96 521.334 319.891 524.155 316.512C526.977 313.133 524.72 308.064 524.155 303.558C523.591 299.052 513.999 286.662 512.306 281.593C510.613 276.524 502.15 250.053 499.893 243.294C497.636 236.536 498.764 228.088 499.893 230.904C501.021 233.72 507.792 251.743 508.357 253.432C508.921 255.122 511.178 282.156 528.106 279.903C545.033 277.65 543.905 298.489 547.29 301.305C550.676 304.121 563.654 322.707 562.525 329.466C561.396 336.224 570.989 338.477 574.939 337.351C578.888 336.224 574.939 327.213 588.481 329.466C599.315 331.268 592.995 336.224 588.481 338.477C583.403 342.232 572.795 350.98 570.989 355.936C568.732 362.132 577.76 358.753 586.224 358.189C594.688 357.626 591.302 368.89 589.609 370.58C588.255 371.932 582.274 376.024 579.453 377.902C578.7 376.212 576.744 372.044 574.939 368.89C572.682 364.948 570.989 372.27 570.989 376.775C570.989 381.281 562.525 381.281 558.575 386.913C554.625 392.545 560.832 399.867 562.525 395.361C563.879 391.757 577.383 388.227 583.966 386.913C585.847 389.729 589.947 394.685 591.302 391.982C592.994 388.603 587.352 386.913 589.609 384.097C591.866 381.281 592.994 379.591 594.687 375.086C596.38 370.58 604.844 362.695 604.844 364.948C604.844 367.201 608.794 370.58 612.179 368.89C615.565 367.201 617.822 369.454 618.95 370.58C620.079 371.706 618.95 373.959 616.129 376.775C613.308 379.591 613.872 379.591 615 384.097C616.129 388.603 622.336 386.913 625.157 386.913C627.978 386.913 629.671 395.361 631.364 395.361C633.057 395.361 631.364 390.856 631.364 389.166C631.364 387.476 633.621 385.223 634.749 389.166C635.652 392.32 636.254 393.484 636.442 393.672C636.63 392.921 636.893 390.968 636.442 389.166C635.878 386.913 638.135 383.534 636.442 381.281C634.75 379.028 627.414 376.775 625.157 376.775C622.9 376.775 624.028 373.959 626.285 370.58C628.543 367.201 633.621 375.086 634.749 376.775C635.878 378.465 637.006 375.649 639.263 375.086C641.52 374.522 640.956 380.155 641.52 381.281C642.085 382.407 644.906 382.407 647.163 382.407C649.42 382.407 646.034 380.155 645.47 379.591C644.905 379.028 645.47 377.338 646.034 376.775C646.599 376.212 647.163 373.396 645.47 370.58C643.777 367.764 641.52 363.821 640.392 360.442C639.263 357.063 640.956 357.063 641.52 354.81C642.085 352.557 646.599 358.753 647.163 355.936C647.727 353.12 652.805 358.753 652.805 360.442C652.805 362.132 655.627 364.385 657.319 364.948C659.012 365.511 660.705 362.132 661.833 361.569C662.962 361.005 662.962 357.063 660.705 357.063C658.448 357.063 660.705 354.247 660.705 351.994C660.705 349.741 666.347 351.431 665.783 349.741C665.332 348.389 662.21 347.301 660.705 346.925C660.329 345.986 659.351 343.659 658.448 341.856C657.319 339.603 656.191 346.925 654.498 349.178C653.144 350.98 652.805 348.427 652.805 346.925C653.37 345.986 654.498 342.757 654.498 337.351C654.498 330.592 645.47 340.73 643.777 344.109C642.085 347.488 632.492 351.994 624.028 349.178C615.564 346.362 625.721 344.109 629.671 340.73C633.62 337.351 647.163 337.351 645.47 329.466C643.777 321.581 638.135 330.029 629.671 329.466C621.207 328.902 633.056 323.833 638.135 319.891C643.213 315.949 657.883 313.696 666.347 311.443C673.118 309.641 680.454 318.952 683.275 323.833C682.335 329.653 681.695 341.856 686.661 344.109C691.626 346.362 694.748 340.542 695.689 337.351C700.391 336.224 708.667 332.62 704.153 327.213C699.639 321.806 690.61 321.205 686.661 321.581C684.028 321.017 681.47 318.652 692.303 313.696C703.137 308.739 702.836 303.37 701.331 301.305C695.877 301.868 684.968 302.094 684.968 298.489C684.968 293.983 695.689 291.73 701.331 286.662C706.974 281.593 723.902 269.765 723.902 273.145C723.902 276.524 733.494 278.213 735.187 274.835C736.879 271.457 739.136 268.076 739.136 265.26C739.136 263.007 742.522 267.325 744.215 269.765C744.967 271.455 745.005 275.849 739.136 279.903C733.268 283.957 731.801 284.972 731.801 284.972C733.117 285.535 734.509 289.027 729.544 298.489C723.337 310.316 730.108 316.512 731.801 316.512C733.494 316.512 742.522 313.696 752.678 313.696C762.835 313.696 754.935 319.328 758.885 323.833C762.835 328.339 761.706 319.891 760.578 316.512C759.449 313.132 766.22 312.569 769.606 301.305C772.314 292.294 782.772 291.167 787.662 291.73L783.712 282.719H789.355V274.835C800.64 262.219 826.031 262.069 837.316 263.571C842.394 268.827 852.437 275.285 851.985 259.064C851.421 238.789 850.86 214.571 837.316 192.606C823.773 170.64 819.823 145.296 822.08 124.457C823.885 107.786 826.97 64.9445 828.287 45.6076C827.722 38.0981 824.788 18.5735 817.566 0.550781" stroke="#242323" stroke-opacity="0.2"/>
</svg>
