<svg width="187" height="184" viewBox="0 0 187 184" fill="none" xmlns="http://www.w3.org/2000/svg">
<rect x="0.5" y="0.5" width="186" height="182.636" rx="91.3182" stroke="#242323" stroke-opacity="0.2"/>
<path d="M103.409 46.7273L93.4091 40L70.5 53.0909V77.6364H116.5V62.7273H103.409" stroke="#2F4066" stroke-width="5.32632" stroke-linecap="round"/>
<path d="M93.5898 77.09C98.8626 63.09 102.027 59.2981 115.59 52.9082" stroke="#2F4066" stroke-width="2.54545" stroke-linecap="round"/>
<path d="M88.3184 75.0889C91.2275 65.0889 98.3918 55.4788 111.955 49.0889" stroke="#2F4066" stroke-width="2.54545" stroke-linecap="round"/>
<path d="M82.5 75.2735C87.2273 62.7281 91.7727 54.5463 104.5 48.1826" stroke="#2F4066" stroke-width="2.54545" stroke-linecap="round"/>
<path d="M44.6467 106.851C43.6661 106.851 42.808 106.627 42.0725 106.177C41.337 105.717 40.765 105.079 40.3564 104.262C39.958 103.434 39.7588 102.464 39.7588 101.35C39.7588 100.217 39.9682 99.2155 40.387 98.3472C40.8161 97.4789 41.4034 96.7996 42.1491 96.3093C42.905 95.819 43.7682 95.5738 44.7386 95.5738C45.2085 95.5738 45.6171 95.6249 45.9644 95.727C46.322 95.819 46.6233 95.9364 46.8685 96.0795C47.1239 96.2123 47.3435 96.3297 47.5274 96.4319C47.7214 96.5238 47.8951 96.5698 48.0483 96.5698C48.2015 96.5698 48.319 96.4983 48.4007 96.3553C48.4825 96.202 48.5437 95.9671 48.5846 95.6504H49.1975C49.1873 95.9262 49.1771 96.2327 49.1669 96.5698C49.1567 96.9069 49.1464 97.3206 49.1362 97.8109C49.1362 98.3012 49.1362 98.9141 49.1362 99.6496H48.508C48.3956 98.9448 48.1709 98.3319 47.8338 97.8109C47.5069 97.2899 47.0932 96.8865 46.5927 96.6004C46.0921 96.3144 45.5354 96.1714 44.9225 96.1714C44.187 96.1714 43.5588 96.3757 43.0378 96.7843C42.5169 97.1827 42.1134 97.7598 41.8273 98.5158C41.5515 99.2614 41.4136 100.16 41.4136 101.213C41.4136 102.806 41.7252 104.047 42.3483 104.936C42.9817 105.814 43.8601 106.254 44.9838 106.254C45.5048 106.254 45.9593 106.172 46.3475 106.008C46.7357 105.845 47.037 105.615 47.2515 105.319C47.4763 105.023 47.5886 104.681 47.5886 104.292V103.235C47.5886 102.949 47.5376 102.735 47.4354 102.592C47.3333 102.438 47.1545 102.331 46.8991 102.27C46.6437 102.198 46.2709 102.157 45.7806 102.147V101.55C45.9951 101.56 46.3015 101.57 46.6999 101.58C47.1085 101.59 47.5784 101.596 48.1096 101.596C48.5897 101.596 49.0085 101.59 49.3661 101.58C49.7338 101.57 50.0658 101.56 50.362 101.55V102.147C50.0147 102.157 49.7542 102.198 49.5806 102.27C49.4069 102.341 49.2894 102.469 49.2282 102.653C49.1669 102.837 49.1362 103.107 49.1362 103.465V106.729H48.5386C48.4978 106.483 48.4365 106.31 48.3548 106.208C48.273 106.095 48.1556 106.039 48.0023 106.039C47.8389 106.039 47.655 106.08 47.4507 106.162C47.2464 106.243 47.0115 106.34 46.7459 106.453C46.4905 106.555 46.1892 106.647 45.8419 106.729C45.5048 106.81 45.1064 106.851 44.6467 106.851ZM57.3235 106.851C56.4552 106.851 55.73 106.693 55.1477 106.376C54.5757 106.06 54.1466 105.579 53.8606 104.936C53.5746 104.292 53.4316 103.49 53.4316 102.53V97.7037C53.4316 97.3359 53.3856 97.0652 53.2937 96.8916C53.2119 96.7077 53.0434 96.58 52.788 96.5085C52.5326 96.437 52.1445 96.3961 51.6235 96.3859V95.7883C52.0934 95.819 52.9515 95.8343 54.1977 95.8343C55.3418 95.8343 56.1437 95.819 56.6033 95.7883V96.3859C56.1335 96.3961 55.781 96.437 55.5461 96.5085C55.3214 96.58 55.1681 96.7077 55.0864 96.8916C55.0149 97.0652 54.9792 97.3359 54.9792 97.7037V102.316C54.9792 103.674 55.1886 104.65 55.6074 105.242C56.0262 105.835 56.7157 106.131 57.6759 106.131C58.6566 106.131 59.3818 105.809 59.8517 105.166C60.3216 104.512 60.5566 103.516 60.5566 102.178V97.8262C60.5566 97.4381 60.5157 97.1469 60.434 96.9528C60.3523 96.7485 60.1939 96.6055 59.959 96.5238C59.724 96.4421 59.3767 96.3961 58.9171 96.3859V95.7883C59.0907 95.7985 59.3308 95.8088 59.6372 95.819C59.9539 95.8292 60.3318 95.8343 60.7711 95.8343C61.3227 95.8343 61.7824 95.8292 62.1501 95.819C62.5179 95.8088 62.7937 95.7985 62.9775 95.7883V96.3859C62.477 96.3961 62.099 96.4472 61.8437 96.5391C61.5883 96.6209 61.4146 96.769 61.3227 96.9835C61.2308 97.1878 61.1848 97.4891 61.1848 97.8875V102.239C61.1848 103.792 60.8681 104.951 60.2348 105.717C59.6015 106.473 58.631 106.851 57.3235 106.851ZM62.7661 106.637V106.039C63.1134 106.019 63.4046 105.947 63.6395 105.825C63.8847 105.702 64.0992 105.513 64.2831 105.258C64.4772 104.992 64.6559 104.65 64.8194 104.231L68.3282 95.6811H68.8798L72.6186 104.767C72.8126 105.227 73.0476 105.554 73.3234 105.748C73.6094 105.932 74.0231 106.029 74.5645 106.039V106.637C74.3091 106.616 73.9772 106.606 73.5686 106.606C73.16 106.596 72.6901 106.591 72.1589 106.591C71.5562 106.591 71.0301 106.596 70.5807 106.606C70.1414 106.606 69.7992 106.616 69.554 106.637V106.039C70.0852 106.029 70.4734 105.988 70.7186 105.917C70.9739 105.835 71.1169 105.707 71.1476 105.533C71.1782 105.35 71.122 105.084 70.979 104.737L68.0218 97.5198L68.2976 97.2746L65.6774 103.71C65.4527 104.252 65.3454 104.691 65.3557 105.028C65.3659 105.365 65.5089 105.615 65.7847 105.779C66.0707 105.932 66.4997 106.019 67.0718 106.039V106.637C66.796 106.627 66.5202 106.621 66.2444 106.621C65.9686 106.611 65.6927 106.606 65.4169 106.606C65.1514 106.596 64.8807 106.591 64.6048 106.591C64.2984 106.591 63.997 106.596 63.7008 106.606C63.4046 106.606 63.093 106.616 62.7661 106.637ZM65.6621 102.883L65.9073 102.285H70.7798L71.0097 102.883H65.6621ZM84.1541 106.744L78.1783 97.0141H77.9178V104.538C77.9178 104.915 77.9637 105.212 78.0557 105.426C78.1476 105.631 78.3264 105.779 78.592 105.871C78.8678 105.963 79.2764 106.019 79.8178 106.039V106.637C79.6135 106.616 79.3172 106.606 78.9291 106.606C78.5409 106.596 78.1221 106.591 77.6726 106.591C77.2027 106.591 76.7788 106.596 76.4008 106.606C76.0229 106.606 75.7266 106.616 75.5121 106.637V106.039C76.0127 106.019 76.3906 105.963 76.646 105.871C76.9116 105.779 77.0852 105.631 77.167 105.426C77.2589 105.212 77.3049 104.915 77.3049 104.538V97.7037C77.3049 97.3359 77.264 97.0652 77.1823 96.8916C77.1006 96.7077 76.932 96.58 76.6766 96.5085C76.4213 96.437 76.0331 96.3961 75.5121 96.3859V95.7883C75.7369 95.7985 76.0382 95.8088 76.4162 95.819C76.7941 95.8292 77.218 95.8343 77.6879 95.8343C78.0148 95.8343 78.3162 95.8292 78.592 95.819C78.8678 95.8088 79.0976 95.7985 79.2815 95.7883L84.0468 103.557H84.3073V97.8875C84.3073 97.4994 84.2613 97.2031 84.1694 96.9988C84.0775 96.7945 83.8987 96.6464 83.6331 96.5545C83.3675 96.4523 82.964 96.3961 82.4226 96.3859V95.7883C82.6371 95.7985 82.9334 95.8088 83.3113 95.819C83.6995 95.8292 84.1183 95.8343 84.5678 95.8343C85.0377 95.8343 85.4616 95.8292 85.8395 95.819C86.2175 95.8088 86.5137 95.7985 86.7283 95.7883V96.3859C86.2277 96.3961 85.8447 96.4472 85.5791 96.5391C85.3237 96.6311 85.15 96.7843 85.0581 96.9988C84.9662 97.2031 84.9202 97.4994 84.9202 97.8875V106.744H84.1541ZM93.1672 106.851C92.1866 106.851 91.3285 106.627 90.593 106.177C89.8575 105.717 89.2855 105.079 88.8769 104.262C88.4785 103.434 88.2793 102.464 88.2793 101.35C88.2793 100.217 88.4887 99.2155 88.9075 98.3472C89.3366 97.4789 89.9239 96.7996 90.6696 96.3093C91.4255 95.819 92.2887 95.5738 93.2591 95.5738C93.729 95.5738 94.1376 95.6249 94.485 95.727C94.8425 95.819 95.1438 95.9364 95.389 96.0795C95.6444 96.2123 95.864 96.3297 96.0479 96.4319C96.2419 96.5238 96.4156 96.5698 96.5688 96.5698C96.7221 96.5698 96.8395 96.4983 96.9212 96.3553C97.003 96.202 97.0643 95.9671 97.1051 95.6504H97.718C97.7078 95.9262 97.6976 96.2327 97.6874 96.5698C97.6772 96.9069 97.6669 97.3206 97.6567 97.8109C97.6567 98.3012 97.6567 98.9141 97.6567 99.6496H97.0285C96.9161 98.9448 96.6914 98.3319 96.3543 97.8109C96.0274 97.2899 95.6137 96.8865 95.1132 96.6004C94.6126 96.3144 94.0559 96.1714 93.443 96.1714C92.7075 96.1714 92.0793 96.3757 91.5583 96.7843C91.0374 97.1827 90.6339 97.7598 90.3479 98.5158C90.0721 99.2614 89.9341 100.16 89.9341 101.213C89.9341 102.806 90.2457 104.047 90.8688 104.936C91.5022 105.814 92.3807 106.254 93.5043 106.254C94.0253 106.254 94.4798 106.172 94.868 106.008C95.2562 105.845 95.5575 105.615 95.7721 105.319C95.9968 105.023 96.1091 104.681 96.1091 104.292V103.235C96.1091 102.949 96.0581 102.735 95.9559 102.592C95.8538 102.438 95.675 102.331 95.4196 102.27C95.1643 102.198 94.7914 102.157 94.3011 102.147V101.55C94.5156 101.56 94.8221 101.57 95.2204 101.58C95.629 101.59 96.0989 101.596 96.6301 101.596C97.1102 101.596 97.529 101.59 97.8866 101.58C98.2543 101.57 98.5863 101.56 98.8825 101.55V102.147C98.5352 102.157 98.2747 102.198 98.1011 102.27C97.9274 102.341 97.81 102.469 97.7487 102.653C97.6874 102.837 97.6567 103.107 97.6567 103.465V106.729H97.0591C97.0183 106.483 96.957 106.31 96.8753 106.208C96.7936 106.095 96.6761 106.039 96.5229 106.039C96.3594 106.039 96.1755 106.08 95.9712 106.162C95.7669 106.243 95.532 106.34 95.2664 106.453C95.011 106.555 94.7097 106.647 94.3624 106.729C94.0253 106.81 93.6269 106.851 93.1672 106.851ZM100.532 106.637V106.039L106.952 96.4319H103.765C103.418 96.4319 103.116 96.4778 102.861 96.5698C102.606 96.6617 102.386 96.8201 102.202 97.0448C102.018 97.2593 101.855 97.5504 101.712 97.9182C101.579 98.2859 101.451 98.7558 101.329 99.3278H100.716C100.818 98.7252 100.89 98.1327 100.93 97.5504C100.981 96.9682 101.007 96.3808 101.007 95.7883C101.385 95.7985 101.794 95.8088 102.233 95.819C102.682 95.8292 103.127 95.8343 103.566 95.8343C104.005 95.8343 104.409 95.8343 104.776 95.8343C105.399 95.8343 106.069 95.8343 106.784 95.8343C107.509 95.8241 108.168 95.8088 108.76 95.7883V96.3859L102.34 105.993H104.516C105.088 105.993 105.573 105.952 105.972 105.871C106.37 105.779 106.707 105.62 106.983 105.396C107.259 105.171 107.494 104.859 107.688 104.461C107.892 104.063 108.086 103.542 108.27 102.898H108.883C108.801 103.542 108.74 104.175 108.699 104.798C108.658 105.411 108.638 106.024 108.638 106.637C108.229 106.616 107.785 106.606 107.305 106.606C106.835 106.596 106.36 106.591 105.88 106.591C105.41 106.591 104.97 106.591 104.562 106.591C103.918 106.591 103.239 106.596 102.524 106.606C101.819 106.606 101.155 106.616 100.532 106.637ZM117.855 106.637V106.039C118.314 106.019 118.657 105.978 118.881 105.917C119.106 105.845 119.254 105.722 119.326 105.549C119.397 105.365 119.433 105.089 119.433 104.721V97.7037C119.433 97.3359 119.397 97.0652 119.326 96.8916C119.264 96.7077 119.121 96.58 118.897 96.5085C118.672 96.437 118.325 96.3961 117.855 96.3859V95.7883C118.1 95.7985 118.427 95.8088 118.835 95.819C119.244 95.8292 119.699 95.8343 120.199 95.8343C120.781 95.8343 121.292 95.8292 121.731 95.819C122.181 95.8088 122.533 95.7985 122.789 95.7883V96.3859C122.257 96.3961 121.864 96.437 121.609 96.5085C121.353 96.58 121.185 96.7077 121.103 96.8916C121.021 97.0652 120.981 97.3359 120.981 97.7037V104.721C120.981 105.089 121.021 105.365 121.103 105.549C121.185 105.722 121.353 105.845 121.609 105.917C121.864 105.978 122.257 106.019 122.789 106.039V106.637C122.533 106.616 122.181 106.606 121.731 106.606C121.292 106.596 120.781 106.591 120.199 106.591C119.699 106.591 119.244 106.596 118.835 106.606C118.427 106.606 118.1 106.616 117.855 106.637ZM110.822 106.637V106.039C111.353 106.019 111.741 105.978 111.986 105.917C112.242 105.845 112.41 105.722 112.492 105.549C112.574 105.365 112.614 105.089 112.614 104.721V97.7037C112.614 97.3359 112.574 97.0652 112.492 96.8916C112.41 96.7077 112.242 96.58 111.986 96.5085C111.741 96.437 111.353 96.3961 110.822 96.3859V95.7883C111.077 95.7985 111.424 95.8088 111.864 95.819C112.313 95.8292 112.824 95.8343 113.396 95.8343C113.907 95.8343 114.366 95.8292 114.775 95.819C115.184 95.8088 115.51 95.7985 115.756 95.7883V96.3859C115.296 96.3961 114.949 96.437 114.714 96.5085C114.489 96.58 114.341 96.7077 114.269 96.8916C114.198 97.0652 114.162 97.3359 114.162 97.7037V104.721C114.162 105.079 114.198 105.35 114.269 105.533C114.341 105.717 114.489 105.845 114.714 105.917C114.949 105.978 115.296 106.019 115.756 106.039V106.637C115.51 106.616 115.184 106.606 114.775 106.606C114.366 106.596 113.907 106.591 113.396 106.591C112.814 106.591 112.303 106.596 111.864 106.606C111.424 106.606 111.077 106.616 110.822 106.637ZM113.58 101.473V100.891H120.015V101.473H113.58ZM129.897 106.851C128.844 106.851 127.93 106.632 127.154 106.192C126.377 105.743 125.775 105.104 125.346 104.277C124.917 103.439 124.702 102.443 124.702 101.289C124.702 100.145 124.922 99.144 125.361 98.2859C125.8 97.4278 126.408 96.7639 127.184 96.294C127.971 95.8139 128.88 95.5738 129.912 95.5738C130.954 95.5738 131.863 95.7985 132.639 96.248C133.426 96.6873 134.029 97.3206 134.447 98.148C134.876 98.9754 135.091 99.9714 135.091 101.136C135.091 102.28 134.871 103.281 134.432 104.139C134.003 104.997 133.395 105.666 132.609 106.146C131.832 106.616 130.928 106.851 129.897 106.851ZM129.942 106.284C130.647 106.284 131.26 106.07 131.781 105.641C132.312 105.212 132.721 104.614 133.007 103.848C133.293 103.082 133.436 102.193 133.436 101.182C133.436 100.15 133.278 99.2614 132.961 98.5158C132.655 97.7598 132.231 97.1776 131.689 96.769C131.148 96.3502 130.54 96.1408 129.866 96.1408C129.161 96.1408 128.543 96.3553 128.012 96.7843C127.491 97.2133 127.082 97.8109 126.786 98.577C126.5 99.3432 126.357 100.232 126.357 101.243C126.357 102.265 126.515 103.153 126.832 103.909C127.149 104.665 127.578 105.253 128.119 105.671C128.66 106.08 129.268 106.284 129.942 106.284ZM142.156 106.851C141.287 106.851 140.562 106.693 139.98 106.376C139.408 106.06 138.979 105.579 138.693 104.936C138.407 104.292 138.264 103.49 138.264 102.53V97.7037C138.264 97.3359 138.218 97.0652 138.126 96.8916C138.044 96.7077 137.875 96.58 137.62 96.5085C137.365 96.437 136.977 96.3961 136.456 96.3859V95.7883C136.925 95.819 137.783 95.8343 139.03 95.8343C140.174 95.8343 140.976 95.819 141.435 95.7883V96.3859C140.965 96.3961 140.613 96.437 140.378 96.5085C140.153 96.58 140 96.7077 139.918 96.8916C139.847 97.0652 139.811 97.3359 139.811 97.7037V102.316C139.811 103.674 140.021 104.65 140.439 105.242C140.858 105.835 141.548 106.131 142.508 106.131C143.489 106.131 144.214 105.809 144.684 105.166C145.154 104.512 145.389 103.516 145.389 102.178V97.8262C145.389 97.4381 145.348 97.1469 145.266 96.9528C145.184 96.7485 145.026 96.6055 144.791 96.5238C144.556 96.4421 144.209 96.3961 143.749 96.3859V95.7883C143.923 95.7985 144.163 95.8088 144.469 95.819C144.786 95.8292 145.164 95.8343 145.603 95.8343C146.155 95.8343 146.614 95.8292 146.982 95.819C147.35 95.8088 147.626 95.7985 147.81 95.7883V96.3859C147.309 96.3961 146.931 96.4472 146.676 96.5391C146.42 96.6209 146.247 96.769 146.155 96.9835C146.063 97.1878 146.017 97.4891 146.017 97.8875V102.239C146.017 103.792 145.7 104.951 145.067 105.717C144.433 106.473 143.463 106.851 142.156 106.851ZM44.7299 123.637V123.039C45.2509 123.019 45.639 122.978 45.8944 122.917C46.1498 122.845 46.3183 122.722 46.4001 122.549C46.4818 122.365 46.5226 122.089 46.5226 121.721V114.704C46.5226 114.336 46.4818 114.065 46.4001 113.892C46.3183 113.708 46.1498 113.58 45.8944 113.508C45.639 113.437 45.2509 113.396 44.7299 113.386V112.788C45.8127 112.819 47.539 112.834 49.9089 112.834C50.2869 112.834 50.6597 112.834 51.0275 112.834C51.4054 112.834 51.763 112.829 52.1001 112.819C52.4474 112.809 52.764 112.799 53.0501 112.788C53.0501 113.36 53.0705 113.922 53.1114 114.474C53.1624 115.015 53.2339 115.541 53.3259 116.052H52.713C52.5597 115.368 52.3861 114.836 52.192 114.458C51.9979 114.081 51.7528 113.815 51.4565 113.662C51.1603 113.508 50.7772 113.432 50.3073 113.432H48.0702V121.721C48.0702 122.099 48.1213 122.38 48.2235 122.564C48.3256 122.738 48.5452 122.855 48.8823 122.917C49.2194 122.978 49.7302 123.019 50.4146 123.039V123.637C50.1183 123.627 49.7046 123.616 49.1735 123.606C48.6423 123.596 48.0243 123.591 47.3194 123.591C46.7576 123.591 46.2571 123.596 45.8178 123.606C45.3786 123.606 45.0159 123.616 44.7299 123.637ZM47.5799 118.626V118.029H50.4759V118.626H47.5799ZM50.9355 120.879C50.8845 120.307 50.8028 119.857 50.6904 119.53C50.578 119.203 50.4095 118.974 50.1847 118.841C49.96 118.698 49.6587 118.626 49.2807 118.626V118.029C49.8017 118.029 50.1796 117.881 50.4146 117.584C50.6597 117.288 50.8181 116.788 50.8896 116.083H51.4259C51.385 116.675 51.3646 117.135 51.3646 117.462C51.3748 117.778 51.3799 118.07 51.3799 118.335C51.3799 118.55 51.3799 118.769 51.3799 118.994C51.3901 119.208 51.4003 119.464 51.4105 119.76C51.431 120.056 51.4514 120.429 51.4718 120.879H50.9355ZM60.3108 123.851C59.4425 123.851 58.7173 123.693 58.135 123.376C57.563 123.06 57.1339 122.579 56.8479 121.936C56.5619 121.292 56.4189 120.49 56.4189 119.53V114.704C56.4189 114.336 56.3729 114.065 56.281 113.892C56.1993 113.708 56.0307 113.58 55.7753 113.508C55.52 113.437 55.1318 113.396 54.6108 113.386V112.788C55.0807 112.819 55.9388 112.834 57.185 112.834C58.3291 112.834 59.131 112.819 59.5907 112.788V113.386C59.1208 113.396 58.7683 113.437 58.5334 113.508C58.3087 113.58 58.1554 113.708 58.0737 113.892C58.0022 114.065 57.9665 114.336 57.9665 114.704V119.316C57.9665 120.674 58.1759 121.65 58.5947 122.242C59.0135 122.835 59.703 123.131 60.6632 123.131C61.6439 123.131 62.3691 122.809 62.839 122.166C63.3089 121.512 63.5439 120.516 63.5439 119.178V114.826C63.5439 114.438 63.503 114.147 63.4213 113.953C63.3396 113.749 63.1812 113.606 62.9463 113.524C62.7113 113.442 62.364 113.396 61.9044 113.386V112.788C62.078 112.799 62.3181 112.809 62.6245 112.819C62.9412 112.829 63.3191 112.834 63.7584 112.834C64.31 112.834 64.7697 112.829 65.1374 112.819C65.5052 112.809 65.781 112.799 65.9648 112.788V113.386C65.4643 113.396 65.0863 113.447 64.831 113.539C64.5756 113.621 64.4019 113.769 64.31 113.983C64.2181 114.188 64.1721 114.489 64.1721 114.888V119.239C64.1721 120.792 63.8554 121.951 63.2221 122.717C62.5888 123.473 61.6183 123.851 60.3108 123.851ZM67.3295 123.637V123.039C67.8505 123.019 68.2387 122.978 68.494 122.917C68.7494 122.845 68.918 122.717 68.9997 122.533C69.0814 122.35 69.1223 122.079 69.1223 121.721V114.704C69.1223 114.336 69.0814 114.065 68.9997 113.892C68.918 113.708 68.7494 113.58 68.494 113.508C68.2387 113.437 67.8505 113.396 67.3295 113.386V112.788C67.5542 112.799 67.8709 112.809 68.2795 112.819C68.6881 112.819 69.1835 112.819 69.7658 112.819C70.0416 112.819 70.3072 112.819 70.5626 112.819C70.818 112.819 71.0529 112.819 71.2674 112.819C71.4921 112.809 71.6913 112.804 71.865 112.804C72.0387 112.793 72.1766 112.788 72.2787 112.788C73.5147 112.788 74.48 113.033 75.1747 113.524C75.8693 114.014 76.2166 114.688 76.2166 115.546C76.2166 116.139 76.0378 116.66 75.6803 117.109C75.3228 117.549 74.8223 117.891 74.1787 118.136C73.5454 118.381 72.7997 118.504 71.9416 118.504H69.965V118.044H71.8803C72.7997 118.044 73.479 117.855 73.9182 117.477C74.3575 117.089 74.5771 116.502 74.5771 115.715C74.5771 114.928 74.3575 114.346 73.9182 113.968C73.479 113.58 72.8099 113.386 71.911 113.386H70.6698V121.721C70.6698 122.079 70.7107 122.35 70.7924 122.533C70.8843 122.717 71.058 122.845 71.3134 122.917C71.5688 122.978 71.9569 123.019 72.4779 123.039V123.637C72.008 123.606 71.1499 123.591 69.9037 123.591C68.6779 123.591 67.8198 123.606 67.3295 123.637ZM76.2626 123.851C75.7825 123.851 75.3943 123.718 75.0981 123.453C74.812 123.177 74.6026 122.743 74.4698 122.15L74.0561 120.388C73.954 119.929 73.8212 119.576 73.6577 119.331C73.4943 119.076 73.2798 118.897 73.0142 118.795C72.7588 118.682 72.4115 118.626 71.9723 118.626H70.0569V118.228H71.819C72.6975 118.228 73.3921 118.299 73.9029 118.442C74.4137 118.575 74.8018 118.82 75.0674 119.178C75.3432 119.525 75.5577 120.026 75.711 120.679L76.0174 121.875C76.1093 122.263 76.2217 122.539 76.3545 122.702C76.4873 122.855 76.6712 122.932 76.9061 122.932C77.0389 122.932 77.1615 122.901 77.2739 122.84C77.3964 122.768 77.5292 122.651 77.6723 122.488L78.0094 122.886C77.7642 123.223 77.5037 123.468 77.2279 123.621C76.9521 123.775 76.6303 123.851 76.2626 123.851ZM87.5125 123.744L81.5367 114.014H81.2762V121.538C81.2762 121.915 81.3221 122.212 81.4141 122.426C81.506 122.631 81.6848 122.779 81.9504 122.871C82.2262 122.963 82.6348 123.019 83.1762 123.039V123.637C82.9719 123.616 82.6756 123.606 82.2875 123.606C81.8993 123.596 81.4805 123.591 81.031 123.591C80.5611 123.591 80.1372 123.596 79.7592 123.606C79.3813 123.606 79.085 123.616 78.8705 123.637V123.039C79.3711 123.019 79.749 122.963 80.0044 122.871C80.27 122.779 80.4436 122.631 80.5254 122.426C80.6173 122.212 80.6633 121.915 80.6633 121.538V114.704C80.6633 114.336 80.6224 114.065 80.5407 113.892C80.459 113.708 80.2904 113.58 80.035 113.508C79.7797 113.437 79.3915 113.396 78.8705 113.386V112.788C79.0953 112.799 79.3966 112.809 79.7746 112.819C80.1525 112.829 80.5764 112.834 81.0463 112.834C81.3732 112.834 81.6746 112.829 81.9504 112.819C82.2262 112.809 82.456 112.799 82.6399 112.788L87.4052 120.557H87.6657V114.888C87.6657 114.499 87.6197 114.203 87.5278 113.999C87.4358 113.795 87.2571 113.646 86.9915 113.554C86.7259 113.452 86.3224 113.396 85.781 113.386V112.788C85.9955 112.799 86.2918 112.809 86.6697 112.819C87.0579 112.829 87.4767 112.834 87.9262 112.834C88.3961 112.834 88.82 112.829 89.1979 112.819C89.5759 112.809 89.8721 112.799 90.0867 112.788V113.386C89.5861 113.396 89.2031 113.447 88.9375 113.539C88.6821 113.631 88.5084 113.784 88.4165 113.999C88.3246 114.203 88.2786 114.499 88.2786 114.888V123.744H87.5125ZM91.7104 123.637V123.039C92.2313 123.019 92.6195 122.978 92.8749 122.917C93.1303 122.845 93.2988 122.722 93.3805 122.549C93.4623 122.365 93.5031 122.089 93.5031 121.721V114.704C93.5031 114.336 93.4623 114.065 93.3805 113.892C93.2988 113.708 93.1303 113.58 92.8749 113.508C92.6195 113.437 92.2313 113.396 91.7104 113.386V112.788C91.976 112.799 92.3284 112.809 92.7676 112.819C93.2069 112.829 93.7125 112.834 94.2846 112.834C94.826 112.834 95.3214 112.829 95.7709 112.819C96.2203 112.809 96.583 112.799 96.8588 112.788V113.386C96.3378 113.396 95.9496 113.437 95.6942 113.508C95.4389 113.58 95.2652 113.708 95.1733 113.892C95.0916 114.065 95.0507 114.336 95.0507 114.704V121.721C95.0507 122.089 95.0916 122.365 95.1733 122.549C95.2652 122.722 95.4389 122.845 95.6942 122.917C95.9496 122.978 96.3378 123.019 96.8588 123.039V123.637C96.583 123.627 96.2203 123.616 95.7709 123.606C95.3214 123.596 94.826 123.591 94.2846 123.591C93.7125 123.591 93.2069 123.596 92.7676 123.606C92.3284 123.616 91.976 123.627 91.7104 123.637ZM99.9619 123.637V123.039C100.575 123.019 101.029 122.973 101.326 122.901C101.632 122.83 101.836 122.692 101.939 122.488C102.041 122.283 102.092 121.982 102.092 121.583V113.432H101.249C100.8 113.432 100.427 113.519 100.13 113.692C99.8445 113.856 99.6044 114.147 99.4103 114.566C99.2162 114.985 99.0426 115.572 98.8894 116.328H98.2765C98.3786 115.695 98.4501 115.092 98.491 114.52C98.542 113.938 98.5676 113.36 98.5676 112.788C98.9864 112.799 99.4359 112.809 99.916 112.819C100.406 112.829 100.907 112.834 101.418 112.834C101.928 112.834 102.414 112.834 102.873 112.834C103.282 112.834 103.736 112.834 104.237 112.834C104.748 112.834 105.253 112.829 105.754 112.819C106.265 112.809 106.729 112.799 107.148 112.788C107.158 113.35 107.184 113.927 107.225 114.52C107.276 115.102 107.353 115.705 107.455 116.328H106.826C106.714 115.756 106.586 115.286 106.443 114.918C106.311 114.54 106.152 114.244 105.968 114.029C105.795 113.805 105.585 113.652 105.34 113.57C105.105 113.478 104.819 113.432 104.482 113.432H103.639V121.583C103.639 121.982 103.69 122.283 103.793 122.488C103.895 122.692 104.094 122.83 104.39 122.901C104.697 122.973 105.156 123.019 105.769 123.039V123.637C105.453 123.616 105.034 123.606 104.513 123.606C104.002 123.596 103.455 123.591 102.873 123.591C102.25 123.591 101.683 123.596 101.172 123.606C100.662 123.606 100.258 123.616 99.9619 123.637ZM114.175 123.851C113.307 123.851 112.582 123.693 111.999 123.376C111.427 123.06 110.998 122.579 110.712 121.936C110.426 121.292 110.283 120.49 110.283 119.53V114.704C110.283 114.336 110.237 114.065 110.145 113.892C110.064 113.708 109.895 113.58 109.64 113.508C109.384 113.437 108.996 113.396 108.475 113.386V112.788C108.945 112.819 109.803 112.834 111.049 112.834C112.193 112.834 112.995 112.819 113.455 112.788V113.386C112.985 113.396 112.633 113.437 112.398 113.508C112.173 113.58 112.02 113.708 111.938 113.892C111.866 114.065 111.831 114.336 111.831 114.704V119.316C111.831 120.674 112.04 121.65 112.459 122.242C112.878 122.835 113.567 123.131 114.527 123.131C115.508 123.131 116.233 122.809 116.703 122.166C117.173 121.512 117.408 120.516 117.408 119.178V114.826C117.408 114.438 117.367 114.147 117.286 113.953C117.204 113.749 117.045 113.606 116.811 113.524C116.576 113.442 116.228 113.396 115.769 113.386V112.788C115.942 112.799 116.182 112.809 116.489 112.819C116.805 112.829 117.183 112.834 117.623 112.834C118.174 112.834 118.634 112.829 119.002 112.819C119.369 112.809 119.645 112.799 119.829 112.788V113.386C119.329 113.396 118.951 113.447 118.695 113.539C118.44 113.621 118.266 113.769 118.174 113.983C118.082 114.188 118.036 114.489 118.036 114.888V119.239C118.036 120.792 117.72 121.951 117.086 122.717C116.453 123.473 115.483 123.851 114.175 123.851ZM121.194 123.637V123.039C121.715 123.019 122.103 122.978 122.358 122.917C122.614 122.845 122.782 122.717 122.864 122.533C122.946 122.35 122.987 122.079 122.987 121.721V114.704C122.987 114.336 122.946 114.065 122.864 113.892C122.782 113.708 122.614 113.58 122.358 113.508C122.103 113.437 121.715 113.396 121.194 113.386V112.788C121.419 112.799 121.735 112.809 122.144 112.819C122.552 112.819 123.048 112.819 123.63 112.819C123.906 112.819 124.171 112.819 124.427 112.819C124.682 112.819 124.917 112.819 125.132 112.819C125.356 112.809 125.556 112.804 125.729 112.804C125.903 112.793 126.041 112.788 126.143 112.788C127.379 112.788 128.344 113.033 129.039 113.524C129.734 114.014 130.081 114.688 130.081 115.546C130.081 116.139 129.902 116.66 129.545 117.109C129.187 117.549 128.687 117.891 128.043 118.136C127.41 118.381 126.664 118.504 125.806 118.504H123.829V118.044H125.745C126.664 118.044 127.343 117.855 127.782 117.477C128.222 117.089 128.441 116.502 128.441 115.715C128.441 114.928 128.222 114.346 127.782 113.968C127.343 113.58 126.674 113.386 125.775 113.386H124.534V121.721C124.534 122.079 124.575 122.35 124.657 122.533C124.749 122.717 124.922 122.845 125.178 122.917C125.433 122.978 125.821 123.019 126.342 123.039V123.637C125.872 123.606 125.014 123.591 123.768 123.591C122.542 123.591 121.684 123.606 121.194 123.637ZM130.127 123.851C129.647 123.851 129.259 123.718 128.962 123.453C128.676 123.177 128.467 122.743 128.334 122.15L127.92 120.388C127.818 119.929 127.685 119.576 127.522 119.331C127.359 119.076 127.144 118.897 126.878 118.795C126.623 118.682 126.276 118.626 125.837 118.626H123.921V118.228H125.683C126.562 118.228 127.256 118.299 127.767 118.442C128.278 118.575 128.666 118.82 128.932 119.178C129.207 119.525 129.422 120.026 129.575 120.679L129.882 121.875C129.974 122.263 130.086 122.539 130.219 122.702C130.352 122.855 130.535 122.932 130.77 122.932C130.903 122.932 131.026 122.901 131.138 122.84C131.261 122.768 131.393 122.651 131.537 122.488L131.874 122.886C131.628 123.223 131.368 123.468 131.092 123.621C130.816 123.775 130.495 123.851 130.127 123.851ZM132.716 123.637V123.039C133.237 123.019 133.625 122.978 133.881 122.917C134.136 122.855 134.305 122.733 134.386 122.549C134.468 122.365 134.509 122.089 134.509 121.721V114.704C134.509 114.336 134.468 114.065 134.386 113.892C134.305 113.708 134.136 113.58 133.881 113.508C133.625 113.437 133.237 113.396 132.716 113.386V112.788C133.258 112.799 133.962 112.809 134.831 112.819C135.709 112.829 136.736 112.834 137.911 112.834C138.278 112.834 138.646 112.834 139.014 112.834C139.392 112.834 139.749 112.829 140.086 112.819C140.434 112.809 140.75 112.799 141.036 112.788C141.036 113.289 141.057 113.789 141.098 114.29C141.149 114.78 141.21 115.271 141.282 115.761H140.669C140.526 115.158 140.357 114.688 140.163 114.351C139.979 114.004 139.739 113.764 139.443 113.631C139.147 113.498 138.764 113.432 138.294 113.432H136.057V121.752C136.057 122.099 136.087 122.365 136.148 122.549C136.21 122.733 136.332 122.855 136.516 122.917C136.71 122.968 136.996 122.993 137.374 122.993H138.018C138.672 122.993 139.198 122.911 139.596 122.748C139.994 122.574 140.321 122.263 140.577 121.813C140.842 121.364 141.093 120.725 141.328 119.898H141.94C141.859 120.511 141.797 121.129 141.757 121.752C141.716 122.365 141.695 122.993 141.695 123.637C141.215 123.616 140.664 123.606 140.04 123.606C139.428 123.596 138.712 123.591 137.895 123.591C136.731 123.591 135.709 123.596 134.831 123.606C133.962 123.606 133.258 123.616 132.716 123.637ZM135.566 118.473V117.891H138.263V118.473H135.566ZM138.922 120.434C138.871 119.934 138.789 119.546 138.677 119.27C138.564 118.984 138.396 118.779 138.171 118.657C137.946 118.534 137.645 118.473 137.267 118.473V117.891C137.788 117.891 138.166 117.743 138.401 117.446C138.646 117.14 138.804 116.634 138.876 115.929H139.412C139.371 116.532 139.351 116.992 139.351 117.308C139.361 117.625 139.366 117.916 139.366 118.182C139.366 118.407 139.366 118.626 139.366 118.841C139.376 119.045 139.387 119.275 139.397 119.53C139.417 119.775 139.438 120.077 139.458 120.434H138.922ZM34.8135 140.637V140.039C35.1608 140.019 35.4519 139.947 35.6869 139.825C35.932 139.702 36.1466 139.513 36.3304 139.258C36.5245 138.992 36.7033 138.65 36.8667 138.231L40.3756 129.681H40.9272L44.6659 138.767C44.86 139.227 45.095 139.554 45.3708 139.748C45.6568 139.932 46.0705 140.029 46.6119 140.039V140.637C46.3565 140.616 46.0245 140.606 45.6159 140.606C45.2073 140.596 44.7374 140.591 44.2062 140.591C43.6036 140.591 43.0775 140.596 42.628 140.606C42.1888 140.606 41.8466 140.616 41.6014 140.637V140.039C42.1326 140.029 42.5208 139.988 42.7659 139.917C43.0213 139.835 43.1643 139.707 43.195 139.533C43.2256 139.35 43.1694 139.084 43.0264 138.737L40.0691 131.52L40.3449 131.275L37.7248 137.71C37.5001 138.252 37.3928 138.691 37.403 139.028C37.4132 139.365 37.5562 139.615 37.832 139.779C38.1181 139.932 38.5471 140.019 39.1191 140.039V140.637C38.8433 140.627 38.5675 140.621 38.2917 140.621C38.0159 140.611 37.7401 140.606 37.4643 140.606C37.1987 140.596 36.928 140.591 36.6522 140.591C36.3458 140.591 36.0444 140.596 35.7482 140.606C35.4519 140.606 35.1404 140.616 34.8135 140.637ZM37.7095 136.883L37.9546 136.285H42.8272L43.057 136.883H37.7095ZM51.9797 140.851C51.3974 140.851 50.8969 140.79 50.4781 140.667C50.0695 140.545 49.7324 140.422 49.4668 140.3C49.2012 140.177 48.9918 140.116 48.8386 140.116C48.7058 140.116 48.5985 140.172 48.5168 140.284C48.4453 140.397 48.3891 140.56 48.3482 140.775H47.7353C47.7558 140.55 47.7711 140.274 47.7813 139.947C47.7915 139.62 47.7966 139.202 47.7966 138.691C47.8068 138.18 47.812 137.542 47.812 136.775H48.4249C48.5066 137.848 48.8437 138.696 49.4361 139.319C50.0286 139.932 50.7999 140.238 51.7499 140.238C52.4343 140.238 52.9808 140.065 53.3894 139.717C53.8082 139.36 54.0176 138.88 54.0176 138.277C54.0176 137.899 53.9257 137.567 53.7418 137.281C53.5681 136.985 53.2821 136.714 52.8837 136.469C52.4956 136.224 51.9746 135.984 51.3208 135.749C50.5343 135.463 49.8907 135.156 49.3902 134.829C48.8999 134.503 48.5372 134.14 48.3023 133.742C48.0775 133.333 47.9652 132.873 47.9652 132.363C47.9652 131.79 48.0929 131.295 48.3482 130.876C48.6138 130.457 48.9867 130.136 49.4668 129.911C49.9469 129.686 50.5087 129.574 51.1523 129.574C51.6835 129.574 52.1278 129.635 52.4853 129.758C52.8429 129.87 53.1391 129.988 53.3741 130.11C53.609 130.233 53.8082 130.294 53.9716 130.294C54.0942 130.294 54.1964 130.243 54.2781 130.141C54.3598 130.028 54.4211 129.865 54.462 129.65H55.0749C55.0544 129.875 55.0391 130.131 55.0289 130.417C55.0187 130.692 55.0085 131.04 54.9982 131.458C54.9982 131.877 54.9982 132.414 54.9982 133.067H54.37C54.2883 132.189 53.9767 131.489 53.4353 130.968C52.8939 130.437 52.2146 130.171 51.3974 130.171C50.7539 130.171 50.2534 130.33 49.8958 130.646C49.5485 130.953 49.3749 131.377 49.3749 131.918C49.3749 132.276 49.4668 132.597 49.6507 132.883C49.8345 133.159 50.1359 133.425 50.5547 133.68C50.9837 133.925 51.5558 134.181 52.2708 134.446C53.4353 134.875 54.273 135.356 54.7837 135.887C55.2945 136.418 55.5499 137.072 55.5499 137.848C55.5499 138.767 55.2281 139.498 54.5845 140.039C53.941 140.581 53.0727 140.851 51.9797 140.851ZM62.1477 140.851C61.5654 140.851 61.0649 140.79 60.6461 140.667C60.2375 140.545 59.9004 140.422 59.6348 140.3C59.3692 140.177 59.1598 140.116 59.0065 140.116C58.8737 140.116 58.7665 140.172 58.6848 140.284C58.6133 140.397 58.5571 140.56 58.5162 140.775H57.9033C57.9237 140.55 57.9391 140.274 57.9493 139.947C57.9595 139.62 57.9646 139.202 57.9646 138.691C57.9748 138.18 57.9799 137.542 57.9799 136.775H58.5928C58.6745 137.848 59.0116 138.696 59.6041 139.319C60.1966 139.932 60.9678 140.238 61.9178 140.238C62.6022 140.238 63.1487 140.065 63.5573 139.717C63.9762 139.36 64.1856 138.88 64.1856 138.277C64.1856 137.899 64.0936 137.567 63.9098 137.281C63.7361 136.985 63.4501 136.714 63.0517 136.469C62.6635 136.224 62.1426 135.984 61.4888 135.749C60.7022 135.463 60.0587 135.156 59.5581 134.829C59.0678 134.503 58.7052 134.14 58.4702 133.742C58.2455 133.333 58.1331 132.873 58.1331 132.363C58.1331 131.79 58.2608 131.295 58.5162 130.876C58.7818 130.457 59.1547 130.136 59.6348 129.911C60.1149 129.686 60.6767 129.574 61.3202 129.574C61.8514 129.574 62.2958 129.635 62.6533 129.758C63.0108 129.87 63.3071 129.988 63.542 130.11C63.777 130.233 63.9762 130.294 64.1396 130.294C64.2622 130.294 64.3643 130.243 64.4461 130.141C64.5278 130.028 64.5891 129.865 64.6299 129.65H65.2428C65.2224 129.875 65.2071 130.131 65.1969 130.417C65.1866 130.692 65.1764 131.04 65.1662 131.458C65.1662 131.877 65.1662 132.414 65.1662 133.067H64.538C64.4563 132.189 64.1447 131.489 63.6033 130.968C63.0619 130.437 62.3826 130.171 61.5654 130.171C60.9219 130.171 60.4213 130.33 60.0638 130.646C59.7165 130.953 59.5428 131.377 59.5428 131.918C59.5428 132.276 59.6348 132.597 59.8186 132.883C60.0025 133.159 60.3038 133.425 60.7227 133.68C61.1517 133.925 61.7237 134.181 62.4388 134.446C63.6033 134.875 64.4409 135.356 64.9517 135.887C65.4625 136.418 65.7178 137.072 65.7178 137.848C65.7178 138.767 65.3961 139.498 64.7525 140.039C64.109 140.581 63.2407 140.851 62.1477 140.851ZM73.1099 140.851C72.0577 140.851 71.1435 140.632 70.3672 140.192C69.5908 139.743 68.9881 139.104 68.5591 138.277C68.1301 137.439 67.9155 136.443 67.9155 135.289C67.9155 134.145 68.1352 133.144 68.5744 132.286C69.0137 131.428 69.6215 130.764 70.3978 130.294C71.1844 129.814 72.0935 129.574 73.1252 129.574C74.1672 129.574 75.0763 129.799 75.8526 130.248C76.6392 130.687 77.2419 131.321 77.6607 132.148C78.0897 132.975 78.3043 133.971 78.3043 135.136C78.3043 136.28 78.0846 137.281 77.6454 138.139C77.2163 138.997 76.6086 139.666 75.822 140.146C75.0456 140.616 74.1416 140.851 73.1099 140.851ZM73.1559 140.284C73.8607 140.284 74.4736 140.07 74.9946 139.641C75.5258 139.212 75.9344 138.614 76.2204 137.848C76.5064 137.082 76.6494 136.193 76.6494 135.182C76.6494 134.15 76.4911 133.261 76.1744 132.516C75.868 131.76 75.444 131.178 74.9026 130.769C74.3612 130.35 73.7534 130.141 73.0792 130.141C72.3744 130.141 71.7564 130.355 71.2252 130.784C70.7042 131.213 70.2956 131.811 69.9994 132.577C69.7134 133.343 69.5704 134.232 69.5704 135.243C69.5704 136.265 69.7287 137.153 70.0454 137.909C70.362 138.665 70.7911 139.253 71.3325 139.671C71.8739 140.08 72.4817 140.284 73.1559 140.284ZM85.4456 140.851C84.465 140.851 83.612 140.627 82.8868 140.177C82.1615 139.717 81.5946 139.074 81.186 138.246C80.7876 137.419 80.5884 136.454 80.5884 135.35C80.5884 134.217 80.7978 133.215 81.2166 132.347C81.6456 131.479 82.233 130.8 82.9787 130.309C83.7244 129.819 84.5825 129.574 85.5529 129.574C86.0126 129.574 86.4161 129.625 86.7634 129.727C87.1107 129.819 87.412 129.936 87.6674 130.079C87.9228 130.212 88.1424 130.33 88.3263 130.432C88.5102 130.524 88.6787 130.57 88.8319 130.57C88.9852 130.57 89.1026 130.498 89.1844 130.355C89.2661 130.212 89.3274 129.977 89.3682 129.65H89.9811C89.9709 129.926 89.9607 130.233 89.9505 130.57C89.9403 130.907 89.9301 131.321 89.9198 131.811C89.9198 132.301 89.9198 132.914 89.9198 133.65H89.3069C89.1844 132.935 88.9545 132.322 88.6174 131.811C88.2905 131.29 87.8819 130.886 87.3916 130.6C86.9013 130.314 86.3497 130.171 85.7368 130.171C84.6438 130.171 83.7857 130.616 83.1626 131.504C82.5497 132.393 82.2432 133.619 82.2432 135.182C82.2432 136.755 82.5548 137.996 83.1779 138.905C83.801 139.804 84.654 140.254 85.7368 140.254C86.3599 140.254 86.9166 140.111 87.4069 139.825C87.9075 139.528 88.3212 139.12 88.6481 138.599C88.9852 138.078 89.2048 137.47 89.3069 136.775H89.9198C89.9198 137.48 89.9198 138.078 89.9198 138.568C89.9301 139.058 89.9403 139.477 89.9505 139.825C89.9607 140.172 89.9709 140.489 89.9811 140.775H89.3682C89.3274 140.438 89.2661 140.203 89.1844 140.07C89.1026 139.937 88.9903 139.871 88.8473 139.871C88.6838 139.871 88.5051 139.922 88.311 140.024C88.1169 140.116 87.887 140.228 87.6215 140.361C87.3661 140.494 87.0596 140.606 86.7021 140.698C86.3446 140.8 85.9258 140.851 85.4456 140.851ZM92.3505 140.637V140.039C92.8715 140.019 93.2596 139.978 93.515 139.917C93.7704 139.845 93.9389 139.722 94.0207 139.549C94.1024 139.365 94.1432 139.089 94.1432 138.721V131.704C94.1432 131.336 94.1024 131.065 94.0207 130.892C93.9389 130.708 93.7704 130.58 93.515 130.508C93.2596 130.437 92.8715 130.396 92.3505 130.386V129.788C92.6161 129.799 92.9685 129.809 93.4078 129.819C93.847 129.829 94.3527 129.834 94.9247 129.834C95.4661 129.834 95.9615 129.829 96.411 129.819C96.8605 129.809 97.2231 129.799 97.4989 129.788V130.386C96.9779 130.396 96.5898 130.437 96.3344 130.508C96.079 130.58 95.9053 130.708 95.8134 130.892C95.7317 131.065 95.6908 131.336 95.6908 131.704V138.721C95.6908 139.089 95.7317 139.365 95.8134 139.549C95.9053 139.722 96.079 139.845 96.3344 139.917C96.5898 139.978 96.9779 140.019 97.4989 140.039V140.637C97.2231 140.627 96.8605 140.616 96.411 140.606C95.9615 140.596 95.4661 140.591 94.9247 140.591C94.3527 140.591 93.847 140.596 93.4078 140.606C92.9685 140.616 92.6161 140.627 92.3505 140.637ZM98.419 140.637V140.039C98.7663 140.019 99.0574 139.947 99.2924 139.825C99.5375 139.702 99.752 139.513 99.9359 139.258C100.13 138.992 100.309 138.65 100.472 138.231L103.981 129.681H104.533L108.271 138.767C108.465 139.227 108.7 139.554 108.976 139.748C109.262 139.932 109.676 140.029 110.217 140.039V140.637C109.962 140.616 109.63 140.606 109.221 140.606C108.813 140.596 108.343 140.591 107.812 140.591C107.209 140.591 106.683 140.596 106.233 140.606C105.794 140.606 105.452 140.616 105.207 140.637V140.039C105.738 140.029 106.126 139.988 106.371 139.917C106.627 139.835 106.77 139.707 106.8 139.533C106.831 139.35 106.775 139.084 106.632 138.737L103.675 131.52L103.95 131.275L101.33 137.71C101.106 138.252 100.998 138.691 101.008 139.028C101.019 139.365 101.162 139.615 101.438 139.779C101.724 139.932 102.153 140.019 102.725 140.039V140.637C102.449 140.627 102.173 140.621 101.897 140.621C101.621 140.611 101.346 140.606 101.07 140.606C100.804 140.596 100.533 140.591 100.258 140.591C99.9512 140.591 99.6499 140.596 99.3536 140.606C99.0574 140.606 98.7458 140.616 98.419 140.637ZM101.315 136.883L101.56 136.285H106.433L106.663 136.883H101.315ZM111.865 140.637V140.039C112.478 140.019 112.932 139.973 113.228 139.901C113.535 139.83 113.739 139.692 113.841 139.488C113.944 139.283 113.995 138.982 113.995 138.583V130.432H113.152C112.702 130.432 112.33 130.519 112.033 130.692C111.747 130.856 111.507 131.147 111.313 131.566C111.119 131.985 110.945 132.572 110.792 133.328H110.179C110.281 132.695 110.353 132.092 110.394 131.52C110.445 130.938 110.47 130.36 110.47 129.788C110.889 129.799 111.339 129.809 111.819 129.819C112.309 129.829 112.81 129.834 113.32 129.834C113.831 129.834 114.316 129.834 114.776 129.834C115.185 129.834 115.639 129.834 116.14 129.834C116.651 129.834 117.156 129.829 117.657 129.819C118.167 129.809 118.632 129.799 119.051 129.788C119.061 130.35 119.087 130.927 119.128 131.52C119.179 132.102 119.255 132.705 119.358 133.328H118.729C118.617 132.756 118.489 132.286 118.346 131.918C118.213 131.54 118.055 131.244 117.871 131.029C117.698 130.805 117.488 130.652 117.243 130.57C117.008 130.478 116.722 130.432 116.385 130.432H115.542V138.583C115.542 138.982 115.593 139.283 115.695 139.488C115.798 139.692 115.997 139.83 116.293 139.901C116.599 139.973 117.059 140.019 117.672 140.039V140.637C117.355 140.616 116.937 140.606 116.416 140.606C115.905 140.596 115.358 140.591 114.776 140.591C114.153 140.591 113.586 140.596 113.075 140.606C112.565 140.606 112.161 140.616 111.865 140.637ZM120.776 140.637V140.039C121.297 140.019 121.685 139.978 121.941 139.917C122.196 139.845 122.365 139.722 122.446 139.549C122.528 139.365 122.569 139.089 122.569 138.721V131.704C122.569 131.336 122.528 131.065 122.446 130.892C122.365 130.708 122.196 130.58 121.941 130.508C121.685 130.437 121.297 130.396 120.776 130.386V129.788C121.042 129.799 121.394 129.809 121.834 129.819C122.273 129.829 122.778 129.834 123.35 129.834C123.892 129.834 124.387 129.829 124.837 129.819C125.286 129.809 125.649 129.799 125.925 129.788V130.386C125.404 130.396 125.016 130.437 124.76 130.508C124.505 130.58 124.331 130.708 124.239 130.892C124.157 131.065 124.117 131.336 124.117 131.704V138.721C124.117 139.089 124.157 139.365 124.239 139.549C124.331 139.722 124.505 139.845 124.76 139.917C125.016 139.978 125.404 140.019 125.925 140.039V140.637C125.649 140.627 125.286 140.616 124.837 140.606C124.387 140.596 123.892 140.591 123.35 140.591C122.778 140.591 122.273 140.596 121.834 140.606C121.394 140.616 121.042 140.627 120.776 140.637ZM133.042 140.851C131.989 140.851 131.075 140.632 130.299 140.192C129.522 139.743 128.92 139.104 128.491 138.277C128.062 137.439 127.847 136.443 127.847 135.289C127.847 134.145 128.067 133.144 128.506 132.286C128.945 131.428 129.553 130.764 130.329 130.294C131.116 129.814 132.025 129.574 133.057 129.574C134.099 129.574 135.008 129.799 135.784 130.248C136.571 130.687 137.174 131.321 137.592 132.148C138.021 132.975 138.236 133.971 138.236 135.136C138.236 136.28 138.016 137.281 137.577 138.139C137.148 138.997 136.54 139.666 135.754 140.146C134.977 140.616 134.073 140.851 133.042 140.851ZM133.088 140.284C133.792 140.284 134.405 140.07 134.926 139.641C135.457 139.212 135.866 138.614 136.152 137.848C136.438 137.082 136.581 136.193 136.581 135.182C136.581 134.15 136.423 133.261 136.106 132.516C135.8 131.76 135.376 131.178 134.834 130.769C134.293 130.35 133.685 130.141 133.011 130.141C132.306 130.141 131.688 130.355 131.157 130.784C130.636 131.213 130.227 131.811 129.931 132.577C129.645 133.343 129.502 134.232 129.502 135.243C129.502 136.265 129.66 137.153 129.977 137.909C130.294 138.665 130.723 139.253 131.264 139.671C131.806 140.08 132.413 140.284 133.088 140.284ZM148.808 140.744L142.832 131.014H142.572V138.538C142.572 138.915 142.618 139.212 142.709 139.426C142.801 139.631 142.98 139.779 143.246 139.871C143.522 139.963 143.93 140.019 144.472 140.039V140.637C144.267 140.616 143.971 140.606 143.583 140.606C143.195 140.596 142.776 140.591 142.326 140.591C141.857 140.591 141.433 140.596 141.055 140.606C140.677 140.606 140.38 140.616 140.166 140.637V140.039C140.666 140.019 141.044 139.963 141.3 139.871C141.565 139.779 141.739 139.631 141.821 139.426C141.913 139.212 141.959 138.915 141.959 138.538V131.704C141.959 131.336 141.918 131.065 141.836 130.892C141.754 130.708 141.586 130.58 141.33 130.508C141.075 130.437 140.687 130.396 140.166 130.386V129.788C140.391 129.799 140.692 129.809 141.07 129.819C141.448 129.829 141.872 129.834 142.342 129.834C142.669 129.834 142.97 129.829 143.246 129.819C143.522 129.809 143.751 129.799 143.935 129.788L148.701 137.557H148.961V131.888C148.961 131.499 148.915 131.203 148.823 130.999C148.731 130.795 148.552 130.646 148.287 130.554C148.021 130.452 147.618 130.396 147.076 130.386V129.788C147.291 129.799 147.587 129.809 147.965 129.819C148.353 129.829 148.772 129.834 149.222 129.834C149.691 129.834 150.115 129.829 150.493 129.819C150.871 129.809 151.168 129.799 151.382 129.788V130.386C150.882 130.396 150.498 130.447 150.233 130.539C149.977 130.631 149.804 130.784 149.712 130.999C149.62 131.203 149.574 131.499 149.574 131.888V140.744H148.808Z" fill="#242323"/>
</svg>
